<svg id="Warstwa_1" data-name="Warstwa 1" xmlns="http://www.w3.org/2000/svg" viewBox="0 0 320.29 425.09"><defs><style>.cls-1{fill:#515151;fill-rule:evenodd;}</style></defs><title>Bez nazwy-5</title><path class="cls-1" d="M334.64,244.4s15.13-2.75,16.54,3.16c1,4.19-2.9,10.3-27.51,26.39-20.81,13.6-47.19,29.3-46.1,30.4,2.08,2.1,107.89-44.46,110.43-25.44,2.25,16.86-132.48,88.16-130.94,95.37.45,2.1,24.24-10.23,62.57-23.14,43.56-14.66,88.52-25.87,91-12.62,3.56,19.31-234.1,144.54-229.24,158.28,17-5.19,50.76-24.3,108.31-51,63.26-29.36,115.95-51.6,136.18-41.54,8.62,4.29,3.85,16.92-11.57,31-12,11-18.24,14.84-38.91,25.24-77.52,39-192.12,89.46-193.79,99.73s204.35-52.2,205.89-44.51c.47,2.36-42.45,16.31-93.59,33.66C213.68,576.58,110.32,607.89,109.81,588c-.52-20.29,123.26-74.89,214.55-118.54,44.79-21.42,77.89-38.91,73.08-44.17C369,420.1,139.51,555.88,141.82,518c1.09-17.81,29.74-42.39,84.74-77.5,74-47.21,158.75-94.18,157.74-96.23-1.48-3-176.63,71.28-184.55,63.1-3.48-3.59,13.37-24,42.06-44.7,50-36.07,122.76-71.8,117.38-73.48-8-2.49-102.83,44.8-116.63,37.55-4.83-2.54-.12-14.45,16.59-25.32,30.74-20,65.63-36.49,75.2-42.87,5.06-3.38,11-7.56,10.52-9.46C344.05,246.15,334.64,244.4,334.64,244.4Z" transform="translate(-109.81 -169.19)"/><path class="cls-1" d="M321.27,169.31c3.65-1.92,15.76,19.36,21.39,20.33s25.48-19.16,28.64-15.77c3.68,4-14.74,27.22-14.9,35.23s19.67,23,15.83,25.7-23.91-11.53-35.42-11.35-33.44,23-38.23,20.2,18.81-25.66,17.74-28.7-32.19-10.09-28.46-15.53,28.37.54,31.33-2.8S318,171,321.27,169.31Z" transform="translate(-109.81 -169.19)"/></svg>