<svg id="Warstwa_1" data-name="Warstwa 1" xmlns="http://www.w3.org/2000/svg" viewBox="0 0 460.01 113.28"><defs><style>.cls-1,.cls-2{fill:#fff;}.cls-1{fill-rule:evenodd;}</style></defs><title>erbis</title><path class="cls-1" d="M109.6,101.92s4-.73,4.41.84c.27,1.12-.77,2.74-7.33,7-5.55,3.63-12.58,7.81-12.29,8.1.56.56,28.75-11.85,29.43-6.78.6,4.49-35.3,23.49-34.89,25.42.12.56,6.46-2.73,16.67-6.17,11.61-3.91,23.59-6.89,24.24-3.36.95,5.15-62.39,38.52-61.09,42.18,4.52-1.38,13.53-6.48,28.86-13.59,16.86-7.82,30.9-13.75,36.29-11.07,2.3,1.14,1,4.51-3.08,8.27-3.2,2.92-4.86,4-10.37,6.73-20.66,10.4-51.2,23.84-51.64,26.58s54.46-13.91,54.87-11.86c.13.63-11.31,4.35-24.94,9-21.37,7.25-48.91,15.59-49,10.29s32.85-20,57.18-31.59c11.94-5.71,20.76-10.37,19.48-11.77-7.57-1.38-68.74,34.8-68.12,24.72.29-4.75,7.92-11.3,22.58-20.65,19.71-12.58,42.31-25.1,42-25.64-.39-.79-47.07,19-49.18,16.82-.93-1,3.56-6.4,11.21-11.91,13.33-9.61,32.71-19.13,31.28-19.58-2.12-.66-27.4,11.94-31.08,10-1.29-.68,0-3.85,4.42-6.75,8.19-5.33,17.49-9.72,20-11.43,1.35-.9,2.94-2,2.8-2.52C112.11,102.39,109.6,101.92,109.6,101.92Z" transform="translate(-49.69 -81.88)"/><path class="cls-1" d="M106,81.91c1-.51,4.2,5.16,5.7,5.42s6.79-5.11,7.63-4.2c1,1.05-3.93,7.25-4,9.39s5.24,6.13,4.22,6.85-6.37-3.07-9.44-3-8.91,6.12-10.19,5.38,5-6.84,4.73-7.65-8.58-2.69-7.58-4.14,7.56.14,8.35-.75S105.17,82.37,106,81.91Z" transform="translate(-49.69 -81.88)"/><path class="cls-2" d="M183.22,139.5l.55-2.06a21.89,21.89,0,0,1,4.81-9.56,10.06,10.06,0,0,1,7.59-3.37q4.41,0,5.75,3.3t-.3,9.49l-.58,2.2ZM221.3,160c-8.79,3-18,4.94-26.19,4.94q-17.1,0-15.29-11.51h47l1.24-4.69a68.62,68.62,0,0,0,2.66-18.13,23.13,23.13,0,0,0-3.52-12.75A20.07,20.07,0,0,0,217,110.27q-6.79-2.48-17.39-2.48a58.63,58.63,0,0,0-17.78,2.62A50.91,50.91,0,0,0,167,117.84a45.35,45.35,0,0,0-11.21,11.91,54.24,54.24,0,0,0-7,15.91q-4.85,18.32,3.91,28.16t30.53,9.85A112.86,112.86,0,0,0,201,182.36a90.06,90.06,0,0,0,15.49-4.17Z" transform="translate(-49.69 -81.88)"/><path class="cls-2" d="M222.51,183.81l33-.11,6.07-21.21c2.74-9.06,15-17.4,33-13.43l11.1-40.7c2.54.41-1.6,0-6.45,0-5.13,0-15.83.19-19.8,3s-8.41,7.42-12.23,15.76l5.1-18.65-29.15,0Z" transform="translate(-49.69 -81.88)"/><path class="cls-2" d="M351.77,148.19c-2.43,8.51-8.25,11.84-15.32,11.36-4.95-.33-8-3.44-5.29-12.79,2.45-8.58,5.8-12.24,14-12.24C350.07,134.51,354.48,138.69,351.77,148.19ZM289,183.54l32.86.12,3.82-14.13c1.58,6.85,14.76,13.84,23.85,13.83,8.92,0,15.11-3.76,20.94-9s10.76-16.92,13-26.41c5-21.11,7.13-39.55-15.43-39.55-13.48,0-22.53,2.69-32.4,19.35l9.6-34.54-31.89,0Z" transform="translate(-49.69 -81.88)"/><path class="cls-2" d="M377.13,183.77h33.3l20.4-75.48s-8.49.94-16.9,1c-8.2,0-16.33-.9-16.33-.9Zm24.33-77.7H429a3.68,3.68,0,0,0,3.36-2.31c.74-2.56,1.26-5.26,2-8,.48-1.72-1.28-2.65-2.57-2.65H404.84a3.6,3.6,0,0,0-3.25,2.53c-.81,2.72-1.42,5.5-2.05,8.11A2.13,2.13,0,0,0,401.46,106.07Z" transform="translate(-49.69 -81.88)"/><path class="cls-2" d="M418.23,180.73c8.48,2.4,20.13,3.08,28.73,3.08,13,0,29.47-.71,37.55-5.13a26.3,26.3,0,0,0,13.94-20.24c1.85-17.72-4.12-19.55-13.83-19.83-18.35-.89-18.44.09-20.7-2.5a2.39,2.39,0,0,1-.36-2.34c.83-3,1.28-4.8,8.8-4.32,3.54.23,29.12.6,31.87,1.79l5.46-20.42c-13.75-1.24-33.79-2.38-46.24-2.35-24.83.08-30.64,6.95-35.1,23.33a41.68,41.68,0,0,0-1,12.19c.47,3.09,4.26,9.73,9.8,10.14,10.88.83,12.25.9,23.22,1.1a3,3,0,0,1,2.47,1.27,2.4,2.4,0,0,1,.2,2.2c-.9,3.29-7.2,3.67-13.58,3.67-5.83,0-22.16-.87-25.72-1.69Z" transform="translate(-49.69 -81.88)"/></svg>