<?xml version="1.0" encoding="utf-8"?>
<!-- Generator: Adobe Illustrator 21.1.0, SVG Export Plug-In . SVG Version: 6.00 Build 0)  -->
<svg version="1.1" id="Warstwa_1" xmlns="http://www.w3.org/2000/svg" xmlns:xlink="http://www.w3.org/1999/xlink" x="0px" y="0px"
	 viewBox="0 0 32 32" style="enable-background:new 0 0 32 32;" xml:space="preserve">
<style type="text/css">
	.st0{fill:#27C6C0;}
</style>
<g id="Guides__x26__Forms">
</g>
<g id="Icons">
	<g>
		<path class="st0" d="M16,5c-5,0-9,4.1-9,9.1c0,2.4,1,4.8,2.6,6.4L16,27l6.4-6.4c1.5-1.6,2.6-4,2.6-6.4C25,9.1,21,5.1,16,5z
			 M21,19.2l-5,5l-5-5c-1.3-1.4-2-3.3-2-5c0-3.9,3.1-7,7-7.1c3.9,0,7,3.2,7,7.1C23,15.9,22.2,17.8,21,19.2z"/>
		<path class="st0" d="M16,10c-2.2,0-4.1,1.8-4.1,4.1s1.8,4.1,4.1,4.1s4.1-1.8,4.1-4.1C20.1,11.8,18.2,10,16,10z M16,16.1
			c-1.1,0-2.1-0.9-2.1-2.1S14.9,12,16,12s2.1,0.9,2.1,2.1S17.1,16.1,16,16.1z"/>
	</g>
</g>
</svg>
