<?xml version="1.0" encoding="utf-8"?>
<!-- Generator: Adobe Illustrator 23.0.2, SVG Export Plug-In . SVG Version: 6.00 Build 0)  -->
<svg version="1.1" id="Warstwa_1" xmlns="http://www.w3.org/2000/svg" xmlns:xlink="http://www.w3.org/1999/xlink" x="0px" y="0px"
	 viewBox="0 0 40 40" style="enable-background:new 0 0 40 40;" xml:space="preserve">
<style type="text/css">
	.st0{fill:#FFFFFF;}
</style>
<path class="st0" d="M20,0C8.9,0,0,8.9,0,20s8.9,20,20,20s20-9,20-20S31,0,20,0z M33.8,12h-5.9c-0.6-2.5-1.6-4.9-2.8-7.1
	C28.9,6.1,31.9,8.7,33.8,12z M20,4.1c1.7,2.4,3,5.1,3.8,7.9h-7.6C17,9.1,18.3,6.5,20,4.1z M4.5,24C4.2,22.7,4,21.4,4,20
	s0.2-2.7,0.5-4h6.8c-0.2,1.3-0.3,2.6-0.3,4s0.1,2.7,0.3,4H4.5z M6.2,28h5.9c0.6,2.5,1.6,4.9,2.8,7.1C11.1,33.9,8.1,31.3,6.2,28z
	 M12.1,12H6.2c1.9-3.3,5-5.9,8.7-7.1C13.6,7.1,12.7,9.5,12.1,12z M20,35.9c-1.7-2.4-3-5.1-3.8-7.9h7.6C23,30.9,21.7,33.5,20,35.9z
	 M24.7,24h-9.4c-0.2-1.3-0.3-2.6-0.3-4s0.1-2.7,0.3-4h9.4c0.2,1.3,0.3,2.6,0.3,4S24.9,22.7,24.7,24z M25.2,35.1
	c1.2-2.2,2.1-4.6,2.8-7.1h5.9C31.9,31.3,28.9,33.9,25.2,35.1z M28.7,24c0.2-1.3,0.3-2.6,0.3-4s-0.1-2.7-0.3-4h6.8
	c0.3,1.3,0.5,2.6,0.5,4s-0.2,2.7-0.5,4H28.7z"/>
</svg>
