<?xml version="1.0" encoding="utf-8"?>
<!-- Generator: Adobe Illustrator 21.1.0, SVG Export Plug-In . SVG Version: 6.00 Build 0)  -->
<svg version="1.1" id="Warstwa_1" xmlns="http://www.w3.org/2000/svg" xmlns:xlink="http://www.w3.org/1999/xlink" x="0px" y="0px"
	 viewBox="0 0 32 32" style="enable-background:new 0 0 32 32;" xml:space="preserve">
<style type="text/css">
	.st0{fill:#27C6C0;}
</style>
<g id="Guides__x26__Forms">
</g>
<g id="Icons">
	<g>
		<path class="st0" d="M17,8.1V6h-2v2.1c-4.5,0.5-8,4.3-8,8.9c0,2.1,0.7,4.1,2,5.6l-1.5,1.5l1.4,1.4l1.5-1.5c1.5,1.2,3.5,2,5.6,2
			s4.1-0.7,5.6-2l1.5,1.5l1.4-1.4L23,22.6c1.2-1.5,2-3.5,2-5.6C25,12.4,21.5,8.6,17,8.1z M16,24c-3.9,0-7-3.1-7-7s3.1-7,7-7
			s7,3.1,7,7S19.9,24,16,24z"/>
		<polygon class="st0" points="17,12 15,12 15,17.5 18.1,20.6 19.5,19.1 17,16.7 		"/>
		<rect x="5.7" y="7.2" transform="matrix(0.7071 -0.7071 0.7071 0.7071 -3.4089 8.23)" class="st0" width="5" height="2"/>
		<rect x="22.8" y="5.7" transform="matrix(0.7071 -0.7071 0.7071 0.7071 1.1845 19.2359)" class="st0" width="2" height="5"/>
	</g>
</g>
</svg>
